G75*
%MOIN*%
%OFA0B0*%
%FSLAX24Y24*%
%IPPOS*%
%LPD*%
%AMOC8*
5,1,8,0,0,1.08239X$1,22.5*
%
%ADD10C,0.0000*%
%ADD11C,0.0600*%
%ADD12OC8,0.0680*%
%ADD13C,0.0680*%
%ADD14OC8,0.0600*%
D10*
X000130Y000487D02*
X000130Y019483D01*
X012500Y019483D01*
X012500Y000487D01*
X000130Y000487D01*
D11*
X002370Y003487D02*
X002890Y003487D01*
X002890Y004487D02*
X002370Y004487D01*
X002370Y005487D02*
X002890Y005487D01*
X002890Y006487D02*
X002370Y006487D01*
X002370Y007487D02*
X002890Y007487D01*
X002890Y008487D02*
X002370Y008487D01*
X002370Y009487D02*
X002890Y009487D01*
X002890Y010487D02*
X002370Y010487D01*
X002370Y011487D02*
X002890Y011487D01*
X002890Y012487D02*
X002370Y012487D01*
X002370Y013487D02*
X002890Y013487D01*
X002890Y014487D02*
X002370Y014487D01*
X002370Y015487D02*
X002890Y015487D01*
X002890Y016487D02*
X002370Y016487D01*
X008370Y016487D02*
X008890Y016487D01*
X008890Y015487D02*
X008370Y015487D01*
X008370Y014487D02*
X008890Y014487D01*
X008890Y013487D02*
X008370Y013487D01*
X008370Y012487D02*
X008890Y012487D01*
X008890Y011487D02*
X008370Y011487D01*
X008370Y010487D02*
X008890Y010487D01*
X008890Y009487D02*
X008370Y009487D01*
X008370Y008487D02*
X008890Y008487D01*
X008890Y007487D02*
X008370Y007487D01*
X008370Y006487D02*
X008890Y006487D01*
X008890Y005487D02*
X008370Y005487D01*
X008370Y004487D02*
X008890Y004487D01*
X008890Y003487D02*
X008370Y003487D01*
D12*
X006130Y003487D03*
X006130Y004487D03*
X006130Y005487D03*
X006130Y006487D03*
X006130Y007487D03*
X006130Y008487D03*
X006130Y009487D03*
X006130Y010487D03*
X006130Y011487D03*
X006130Y012487D03*
X006130Y013487D03*
X006130Y014487D03*
X006130Y015487D03*
X006130Y016487D03*
X006130Y017487D03*
X006130Y018487D03*
X005130Y018487D03*
X005130Y017487D03*
X005130Y016487D03*
X005130Y015487D03*
X005130Y014487D03*
X005130Y013487D03*
X005130Y012487D03*
X005130Y011487D03*
X005130Y010487D03*
X005130Y009487D03*
X005130Y008487D03*
X005130Y007487D03*
X005130Y006487D03*
X005130Y005487D03*
X005130Y004487D03*
X005130Y003487D03*
X005130Y002487D03*
X005130Y001487D03*
X006130Y001487D03*
X006130Y002487D03*
D13*
X007630Y001787D02*
X007630Y001187D01*
X008630Y001187D02*
X008630Y001787D01*
X010130Y011187D02*
X010130Y011787D01*
X011130Y011787D02*
X011130Y011187D01*
X011330Y015487D02*
X011930Y015487D01*
X011930Y016487D02*
X011330Y016487D01*
X010430Y016487D02*
X009830Y016487D01*
X009830Y015487D02*
X010430Y015487D01*
D14*
X001130Y015487D03*
X001130Y016987D03*
X001130Y017987D03*
X001130Y012487D03*
X001130Y007487D03*
X001130Y004487D03*
X001130Y002987D03*
X001130Y001987D03*
M02*
