G75*
%MOIN*%
%OFA0B0*%
%FSLAX24Y24*%
%IPPOS*%
%LPD*%
%AMOC8*
5,1,8,0,0,1.08239X$1,22.5*
%
%ADD10C,0.0000*%
%ADD11C,0.0520*%
%ADD12OC8,0.0600*%
%ADD13C,0.0600*%
%ADD14OC8,0.0520*%
%ADD15C,0.0160*%
%ADD16C,0.0100*%
D10*
X000130Y000487D02*
X000130Y019483D01*
X012500Y019483D01*
X012500Y000487D01*
X000130Y000487D01*
D11*
X002370Y003487D02*
X002890Y003487D01*
X002890Y004487D02*
X002370Y004487D01*
X002370Y005487D02*
X002890Y005487D01*
X002890Y006487D02*
X002370Y006487D01*
X002370Y007487D02*
X002890Y007487D01*
X002890Y008487D02*
X002370Y008487D01*
X002370Y009487D02*
X002890Y009487D01*
X002890Y010487D02*
X002370Y010487D01*
X002370Y011487D02*
X002890Y011487D01*
X002890Y012487D02*
X002370Y012487D01*
X002370Y013487D02*
X002890Y013487D01*
X002890Y014487D02*
X002370Y014487D01*
X002370Y015487D02*
X002890Y015487D01*
X002890Y016487D02*
X002370Y016487D01*
X008370Y016487D02*
X008890Y016487D01*
X008890Y015487D02*
X008370Y015487D01*
X008370Y014487D02*
X008890Y014487D01*
X008890Y013487D02*
X008370Y013487D01*
X008370Y012487D02*
X008890Y012487D01*
X008890Y011487D02*
X008370Y011487D01*
X008370Y010487D02*
X008890Y010487D01*
X008890Y009487D02*
X008370Y009487D01*
X008370Y008487D02*
X008890Y008487D01*
X008890Y007487D02*
X008370Y007487D01*
X008370Y006487D02*
X008890Y006487D01*
X008890Y005487D02*
X008370Y005487D01*
X008370Y004487D02*
X008890Y004487D01*
X008890Y003487D02*
X008370Y003487D01*
D12*
X006130Y003487D03*
X006130Y004487D03*
X006130Y005487D03*
X006130Y006487D03*
X006130Y007487D03*
X006130Y008487D03*
X006130Y009487D03*
X006130Y010487D03*
X006130Y011487D03*
X006130Y012487D03*
X006130Y013487D03*
X006130Y014487D03*
X006130Y015487D03*
X006130Y016487D03*
X006130Y017487D03*
X006130Y018487D03*
X005130Y018487D03*
X005130Y017487D03*
X005130Y016487D03*
X005130Y015487D03*
X005130Y014487D03*
X005130Y013487D03*
X005130Y012487D03*
X005130Y011487D03*
X005130Y010487D03*
X005130Y009487D03*
X005130Y008487D03*
X005130Y007487D03*
X005130Y006487D03*
X005130Y005487D03*
X005130Y004487D03*
X005130Y003487D03*
X005130Y002487D03*
X005130Y001487D03*
X006130Y001487D03*
X006130Y002487D03*
D13*
X007630Y001787D02*
X007630Y001187D01*
X008630Y001187D02*
X008630Y001787D01*
X010130Y011187D02*
X010130Y011787D01*
X011130Y011787D02*
X011130Y011187D01*
X011330Y015487D02*
X011930Y015487D01*
X011930Y016487D02*
X011330Y016487D01*
X010430Y016487D02*
X009830Y016487D01*
X009830Y015487D02*
X010430Y015487D01*
D14*
X001130Y015487D03*
X001130Y016987D03*
X001130Y017987D03*
X001130Y012487D03*
X001130Y007487D03*
X001130Y004487D03*
X001130Y002987D03*
X001130Y001987D03*
D15*
X001130Y002987D02*
X001130Y004487D01*
X002630Y004487D02*
X005130Y004487D01*
X005130Y003487D02*
X002630Y003487D01*
X002630Y002194D01*
X002632Y002144D01*
X002637Y002093D01*
X002646Y002044D01*
X002659Y001995D01*
X002675Y001947D01*
X002694Y001900D01*
X002716Y001855D01*
X002742Y001812D01*
X002771Y001770D01*
X002803Y001731D01*
X002837Y001694D01*
X002874Y001660D01*
X002913Y001628D01*
X002955Y001599D01*
X002998Y001573D01*
X003043Y001551D01*
X003090Y001532D01*
X003138Y001516D01*
X003187Y001503D01*
X003236Y001494D01*
X003287Y001489D01*
X003337Y001487D01*
X006130Y001487D01*
X006130Y003487D02*
X008630Y003487D01*
X008630Y004487D02*
X006130Y004487D01*
X006130Y005487D02*
X008630Y005487D01*
X008630Y006487D02*
X006130Y006487D01*
X006130Y007487D02*
X008630Y007487D01*
X008630Y008487D02*
X006130Y008487D01*
X006130Y009487D02*
X008630Y009487D01*
X008630Y010487D02*
X006130Y010487D01*
X005130Y010487D02*
X002630Y010487D01*
X002630Y011487D02*
X005130Y011487D01*
X005130Y012487D02*
X002630Y012487D01*
X002630Y013487D02*
X005130Y013487D01*
X005130Y014487D02*
X002630Y014487D01*
X002630Y015487D02*
X005130Y015487D01*
X005130Y016487D02*
X002630Y016487D01*
X003630Y017487D02*
X005130Y017487D01*
X005130Y018487D02*
X007923Y018487D01*
X007973Y018485D01*
X008024Y018480D01*
X008073Y018471D01*
X008122Y018458D01*
X008170Y018442D01*
X008217Y018423D01*
X008262Y018401D01*
X008305Y018375D01*
X008347Y018346D01*
X008386Y018314D01*
X008423Y018280D01*
X008457Y018243D01*
X008489Y018204D01*
X008518Y018162D01*
X008544Y018119D01*
X008566Y018074D01*
X008585Y018027D01*
X008601Y017979D01*
X008614Y017930D01*
X008623Y017881D01*
X008628Y017830D01*
X008630Y017780D01*
X008630Y016487D01*
X006130Y016487D01*
X006130Y015487D02*
X008630Y015487D01*
X009130Y014487D02*
X009190Y014489D01*
X009251Y014494D01*
X009310Y014503D01*
X009369Y014516D01*
X009428Y014532D01*
X009485Y014552D01*
X009540Y014575D01*
X009595Y014602D01*
X009647Y014631D01*
X009698Y014664D01*
X009747Y014700D01*
X009793Y014738D01*
X009837Y014780D01*
X009879Y014824D01*
X009917Y014870D01*
X009953Y014919D01*
X009986Y014970D01*
X010015Y015022D01*
X010042Y015077D01*
X010065Y015132D01*
X010085Y015189D01*
X010101Y015248D01*
X010114Y015307D01*
X010123Y015366D01*
X010128Y015427D01*
X010130Y015487D01*
X011630Y015487D01*
X010130Y016487D02*
X008630Y016487D01*
X008630Y014487D02*
X009130Y014487D01*
X008630Y013487D02*
X006130Y013487D01*
X006130Y012487D02*
X008630Y012487D01*
X008630Y011487D02*
X010130Y011487D01*
X005130Y009487D02*
X002630Y009487D01*
X002630Y008487D02*
X005130Y008487D01*
X005130Y007487D02*
X002630Y007487D01*
X002630Y006487D02*
X005130Y006487D01*
X005130Y005487D02*
X002630Y005487D01*
X001130Y007487D02*
X001130Y012487D01*
X001130Y015487D02*
X001130Y016987D01*
X001130Y017987D02*
X003630Y017987D01*
X003630Y017487D01*
D16*
X001630Y007487D02*
X001130Y007487D01*
X001630Y007487D02*
X001630Y003487D01*
X002630Y003487D01*
M02*
