%
M48
M72
T01C0.0320
T02C0.0400
%
T01
X1130Y1987
X1130Y2987
X1130Y4487
X2630Y4487
X2630Y3487
X2630Y5487
X2630Y6487
X2630Y7487
X2630Y8487
X2630Y9487
X2630Y10487
X2630Y11487
X2630Y12487
X2630Y13487
X2630Y14487
X2630Y15487
X2630Y16487
X1130Y16987
X1130Y17987
X1130Y15487
X1130Y12487
X1130Y7487
X8630Y7487
X8630Y8487
X8630Y9487
X8630Y10487
X8630Y11487
X8630Y12487
X8630Y13487
X8630Y14487
X8630Y15487
X8630Y16487
X8630Y6487
X8630Y5487
X8630Y4487
X8630Y3487
T02
X8630Y1487
X7630Y1487
X6130Y1487
X6130Y2487
X6130Y3487
X6130Y4487
X6130Y5487
X6130Y6487
X6130Y7487
X6130Y8487
X6130Y9487
X6130Y10487
X6130Y11487
X6130Y12487
X6130Y13487
X6130Y14487
X6130Y15487
X6130Y16487
X6130Y17487
X6130Y18487
X5130Y18487
X5130Y17487
X5130Y16487
X5130Y15487
X5130Y14487
X5130Y13487
X5130Y12487
X5130Y11487
X5130Y10487
X5130Y9487
X5130Y8487
X5130Y7487
X5130Y6487
X5130Y5487
X5130Y4487
X5130Y3487
X5130Y2487
X5130Y1487
X10130Y11487
X11130Y11487
X11630Y15487
X11630Y16487
X10130Y16487
X10130Y15487
M30
